<?xml version="1.0" encoding="UTF-8" standalone="no"?>
<!DOCTYPE svg PUBLIC "-//W3C//DTD SVG 1.1//EN"
 "http://www.w3.org/Graphics/SVG/1.1/DTD/svg11.dtd">
<!-- Generated by graphviz version 2.43.0 (0)
 -->
<!-- Title: DenseDepthHeadIncrement Pages: 1 -->
<svg width="2568pt" height="408pt"
 viewBox="0.00 0.00 2568.00 408.00" xmlns="http://www.w3.org/2000/svg" xmlns:xlink="http://www.w3.org/1999/xlink">
<g id="graph0" class="graph" transform="scale(1 1) rotate(0) translate(18 390)">
<title>DenseDepthHeadIncrement</title>
<polygon fill="white" stroke="transparent" points="-18,18 -18,-390 2550,-390 2550,18 -18,18"/>
<text text-anchor="middle" x="1266" y="-353.6" font-family="Helvetica,sans-Serif" font-size="18.00">Incremental change: add gated adapter + dense depth head supervision</text>
<g id="clust1" class="cluster">
<title>cluster_increment</title>
<path fill="white" stroke="#f97316" stroke-width="2" d="M889,-60C889,-60 2512,-60 2512,-60 2518,-60 2524,-66 2524,-72 2524,-72 2524,-324 2524,-324 2524,-330 2518,-336 2512,-336 2512,-336 889,-336 889,-336 883,-336 877,-330 877,-324 877,-324 877,-72 877,-72 877,-66 883,-60 889,-60"/>
<text text-anchor="middle" x="1700.5" y="-317.6" font-family="Helvetica,sans-Serif" font-size="18.00">Added increment for dense depth head supervision</text>
</g>
<!-- input -->
<g id="node1" class="node">
<title>input</title>
<path fill="#eff6ff" stroke="#334155" stroke-width="1.2" d="M159,-203C159,-203 12,-203 12,-203 6,-203 0,-197 0,-191 0,-191 0,-177 0,-177 0,-171 6,-165 12,-165 12,-165 159,-165 159,-165 165,-165 171,-171 171,-177 171,-177 171,-191 171,-191 171,-197 165,-203 159,-203"/>
<text text-anchor="middle" x="85.5" y="-187.4" font-family="Helvetica,sans-Serif" font-size="12.00">Input frames</text>
<text text-anchor="middle" x="85.5" y="-174.4" font-family="Helvetica,sans-Serif" font-size="12.00">5 camera frames + LiDAR</text>
</g>
<!-- frontend -->
<g id="node2" class="node">
<title>frontend</title>
<path fill="#e0f2fe" stroke="#334155" stroke-width="1.2" d="M375,-216C375,-216 234,-216 234,-216 228,-216 222,-210 222,-204 222,-204 222,-164 222,-164 222,-158 228,-152 234,-152 234,-152 375,-152 375,-152 381,-152 387,-158 387,-164 387,-164 387,-204 387,-204 387,-210 381,-216 375,-216"/>
<text text-anchor="middle" x="304.5" y="-200.4" font-family="Helvetica,sans-Serif" font-size="12.00">Original front&#45;end</text>
<text text-anchor="middle" x="304.5" y="-187.4" font-family="Helvetica,sans-Serif" font-size="12.00">Frozen OccAny backbone</text>
<text text-anchor="middle" x="304.5" y="-174.4" font-family="Helvetica,sans-Serif" font-size="12.00">+ LiDAR&#45;image fusion</text>
<text text-anchor="middle" x="304.5" y="-161.4" font-family="Helvetica,sans-Serif" font-size="12.00">+ token_projector</text>
</g>
<!-- input&#45;&gt;frontend -->
<g id="edge1" class="edge">
<title>input&#45;&gt;frontend</title>
<path fill="none" stroke="#334155" stroke-width="1.3" d="M171.02,-184C185.08,-184 199.7,-184 213.88,-184"/>
<polygon fill="#334155" stroke="#334155" stroke-width="1.3" points="214.2,-186.63 221.7,-184 214.2,-181.38 214.2,-186.63"/>
</g>
<!-- feat -->
<g id="node3" class="node">
<title>feat</title>
<path fill="#e0f2fe" stroke="#334155" stroke-width="1.2" d="M582,-203C582,-203 498,-203 498,-203 492,-203 486,-197 486,-191 486,-191 486,-177 486,-177 486,-171 492,-165 498,-165 498,-165 582,-165 582,-165 588,-165 594,-171 594,-177 594,-177 594,-191 594,-191 594,-197 588,-203 582,-203"/>
<text text-anchor="middle" x="540" y="-187.4" font-family="Helvetica,sans-Serif" font-size="12.00">feat_2d</text>
<text text-anchor="middle" x="540" y="-174.4" font-family="Helvetica,sans-Serif" font-size="12.00">(B,N,256,10,32)</text>
</g>
<!-- frontend&#45;&gt;feat -->
<g id="edge2" class="edge">
<title>frontend&#45;&gt;feat</title>
<path fill="none" stroke="#334155" stroke-width="1.3" d="M387.17,-184C417.1,-184 450.42,-184 478.21,-184"/>
<polygon fill="#334155" stroke="#334155" stroke-width="1.3" points="478.39,-186.63 485.89,-184 478.39,-181.38 478.39,-186.63"/>
</g>
<!-- lss -->
<g id="node4" class="node">
<title>lss</title>
<path fill="#ecfeff" stroke="#334155" stroke-width="1.2" d="M1088,-51.5C1088,-51.5 950,-51.5 950,-51.5 944,-51.5 938,-45.5 938,-39.5 938,-39.5 938,-12.5 938,-12.5 938,-6.5 944,-0.5 950,-0.5 950,-0.5 1088,-0.5 1088,-0.5 1094,-0.5 1100,-6.5 1100,-12.5 1100,-12.5 1100,-39.5 1100,-39.5 1100,-45.5 1094,-51.5 1088,-51.5"/>
<text text-anchor="middle" x="1019" y="-35.9" font-family="Helvetica,sans-Serif" font-size="12.00">Original occupancy path</text>
<text text-anchor="middle" x="1019" y="-22.9" font-family="Helvetica,sans-Serif" font-size="12.00">LSS lift + LiDAR memory</text>
<text text-anchor="middle" x="1019" y="-9.9" font-family="Helvetica,sans-Serif" font-size="12.00">+ 3D occ head</text>
</g>
<!-- feat&#45;&gt;lss -->
<g id="edge3" class="edge">
<title>feat&#45;&gt;lss</title>
<path fill="none" stroke="#334155" stroke-width="1.3" d="M583.72,-165C646.79,-137.53 769.06,-86.59 877,-55 894,-50.02 912.39,-45.58 930.11,-41.76"/>
<polygon fill="#334155" stroke="#334155" stroke-width="1.3" points="930.86,-44.28 937.65,-40.16 929.77,-39.15 930.86,-44.28"/>
<text text-anchor="middle" x="763.5" y="-132.2" font-family="Helvetica,sans-Serif" font-size="11.00">baseline direct path</text>
</g>
<!-- adapter -->
<g id="node7" class="node">
<title>adapter</title>
<path fill="#ffedd5" stroke="#ea580c" stroke-width="1.6" d="M1141,-209.5C1141,-209.5 897,-209.5 897,-209.5 891,-209.5 885,-203.5 885,-197.5 885,-197.5 885,-170.5 885,-170.5 885,-164.5 891,-158.5 897,-158.5 897,-158.5 1141,-158.5 1141,-158.5 1147,-158.5 1153,-164.5 1153,-170.5 1153,-170.5 1153,-197.5 1153,-197.5 1153,-203.5 1147,-209.5 1141,-209.5"/>
<text text-anchor="middle" x="1019" y="-193.9" font-family="Helvetica,sans-Serif" font-size="12.00">1. SharedGeometryAdapter</text>
<text text-anchor="middle" x="1019" y="-180.9" font-family="Helvetica,sans-Serif" font-size="12.00">multi&#45;scale 2D geometry branch</text>
<text text-anchor="middle" x="1019" y="-167.9" font-family="Helvetica,sans-Serif" font-size="12.00">produces shared_geometry_feat and delta</text>
</g>
<!-- feat&#45;&gt;adapter -->
<g id="edge6" class="edge">
<title>feat&#45;&gt;adapter</title>
<path fill="none" stroke="#f97316" stroke-width="2" d="M594.33,-184C662.26,-184 782.24,-184 877.22,-184"/>
<polygon fill="#f97316" stroke="#f97316" stroke-width="2" points="877.38,-186.63 884.88,-184 877.38,-181.38 877.38,-186.63"/>
<text text-anchor="middle" x="763.5" y="-187.2" font-family="Helvetica,sans-Serif" font-size="11.00">enable &#45;&#45;shared_geometry_adapter</text>
</g>
<!-- gate -->
<g id="node8" class="node">
<title>gate</title>
<path fill="#fde68a" stroke="#d97706" stroke-width="1.8" d="M1692,-299.5C1692,-299.5 1452,-299.5 1452,-299.5 1446,-299.5 1440,-293.5 1440,-287.5 1440,-287.5 1440,-260.5 1440,-260.5 1440,-254.5 1446,-248.5 1452,-248.5 1452,-248.5 1692,-248.5 1692,-248.5 1698,-248.5 1704,-254.5 1704,-260.5 1704,-260.5 1704,-287.5 1704,-287.5 1704,-293.5 1698,-299.5 1692,-299.5"/>
<text text-anchor="middle" x="1572" y="-283.9" font-family="Helvetica,sans-Serif" font-size="12.00">2. Gated residual merge</text>
<text text-anchor="middle" x="1572" y="-270.9" font-family="Helvetica,sans-Serif" font-size="12.00">feat_2d_refined = feat_2d + alpha * delta</text>
<text text-anchor="middle" x="1572" y="-257.9" font-family="Helvetica,sans-Serif" font-size="12.00">alpha init = 0.0</text>
</g>
<!-- feat&#45;&gt;gate -->
<g id="edge8" class="edge">
<title>feat&#45;&gt;gate</title>
<path fill="none" stroke="#d97706" stroke-width="1.3" stroke-dasharray="5,2" d="M594.25,-193.09C616.67,-196.76 643.06,-200.85 667,-204 893.2,-233.78 950.43,-236.72 1178,-253 1262.34,-259.03 1356.97,-264.14 1432.24,-267.81"/>
<polygon fill="#d97706" stroke="#d97706" stroke-width="1.3" points="1432.31,-270.44 1439.93,-268.18 1432.56,-265.2 1432.31,-270.44"/>
<text text-anchor="middle" x="1019" y="-253.2" font-family="Helvetica,sans-Serif" font-size="11.00">identity residual</text>
</g>
<!-- occ_logits -->
<g id="node5" class="node">
<title>occ_logits</title>
<path fill="#ede9fe" stroke="#334155" stroke-width="1.2" d="M1592.5,-36C1592.5,-36 1551.5,-36 1551.5,-36 1545.5,-36 1539.5,-30 1539.5,-24 1539.5,-24 1539.5,-12 1539.5,-12 1539.5,-6 1545.5,0 1551.5,0 1551.5,0 1592.5,0 1592.5,0 1598.5,0 1604.5,-6 1604.5,-12 1604.5,-12 1604.5,-24 1604.5,-24 1604.5,-30 1598.5,-36 1592.5,-36"/>
<text text-anchor="middle" x="1572" y="-14.9" font-family="Helvetica,sans-Serif" font-size="12.00">ssc_logit</text>
</g>
<!-- lss&#45;&gt;occ_logits -->
<g id="edge4" class="edge">
<title>lss&#45;&gt;occ_logits</title>
<path fill="none" stroke="#334155" stroke-width="1.3" d="M1100.12,-24.84C1220.07,-23.1 1441.82,-19.88 1531.66,-18.57"/>
<polygon fill="#334155" stroke="#334155" stroke-width="1.3" points="1531.97,-21.19 1539.43,-18.46 1531.89,-15.94 1531.97,-21.19"/>
</g>
<!-- occ_loss -->
<g id="node6" class="node">
<title>occ_loss</title>
<path fill="#fff1f2" stroke="#e11d48" stroke-width="1.2" d="M2020,-41C2020,-41 1939,-41 1939,-41 1933,-41 1927,-35 1927,-29 1927,-29 1927,-15 1927,-15 1927,-9 1933,-3 1939,-3 1939,-3 2020,-3 2020,-3 2026,-3 2032,-9 2032,-15 2032,-15 2032,-29 2032,-29 2032,-35 2026,-41 2020,-41"/>
<text text-anchor="middle" x="1979.5" y="-25.4" font-family="Helvetica,sans-Serif" font-size="12.00">occupancy loss</text>
<text text-anchor="middle" x="1979.5" y="-12.4" font-family="Helvetica,sans-Serif" font-size="12.00">CE + Lovasz</text>
</g>
<!-- occ_logits&#45;&gt;occ_loss -->
<g id="edge5" class="edge">
<title>occ_logits&#45;&gt;occ_loss</title>
<path fill="none" stroke="#334155" stroke-width="1.3" d="M1604.82,-18.31C1672.6,-18.98 1832.14,-20.56 1919.23,-21.42"/>
<polygon fill="#334155" stroke="#334155" stroke-width="1.3" points="1919.39,-24.04 1926.91,-21.49 1919.44,-18.79 1919.39,-24.04"/>
</g>
<!-- total_loss -->
<g id="node12" class="node">
<title>total_loss</title>
<path fill="#fee2e2" stroke="#dc2626" stroke-width="2" d="M2504,-112C2504,-112 2268,-112 2268,-112 2262,-112 2256,-106 2256,-100 2256,-100 2256,-86 2256,-86 2256,-80 2262,-74 2268,-74 2268,-74 2504,-74 2504,-74 2510,-74 2516,-80 2516,-86 2516,-86 2516,-100 2516,-100 2516,-106 2510,-112 2504,-112"/>
<text text-anchor="middle" x="2386" y="-96.4" font-family="Helvetica,sans-Serif" font-size="12.00">total loss</text>
<text text-anchor="middle" x="2386" y="-83.4" font-family="Helvetica,sans-Serif" font-size="12.00">occupancy loss + dense_depth_weighted</text>
</g>
<!-- occ_loss&#45;&gt;total_loss -->
<g id="edge13" class="edge">
<title>occ_loss&#45;&gt;total_loss</title>
<path fill="none" stroke="#334155" stroke-width="1.3" d="M2032.14,-31.06C2091.56,-41.49 2191,-58.95 2269.2,-72.67"/>
<polygon fill="#334155" stroke="#334155" stroke-width="1.3" points="2268.86,-75.28 2276.7,-73.99 2269.77,-70.11 2268.86,-75.28"/>
</g>
<!-- adapter&#45;&gt;gate -->
<g id="edge7" class="edge">
<title>adapter&#45;&gt;gate</title>
<path fill="none" stroke="#f97316" stroke-width="2" d="M1153.09,-198.51C1229.94,-207.73 1328.26,-220.93 1415,-237 1430.29,-239.83 1446.33,-243.19 1462.07,-246.71"/>
<polygon fill="#f97316" stroke="#f97316" stroke-width="2" points="1461.88,-249.35 1469.77,-248.45 1463.04,-244.23 1461.88,-249.35"/>
<text text-anchor="middle" x="1296.5" y="-240.2" font-family="Helvetica,sans-Serif" font-size="11.00">delta</text>
</g>
<!-- depth_head -->
<g id="node9" class="node">
<title>depth_head</title>
<path fill="#ffedd5" stroke="#ea580c" stroke-width="1.6" d="M1683,-216C1683,-216 1461,-216 1461,-216 1455,-216 1449,-210 1449,-204 1449,-204 1449,-164 1449,-164 1449,-158 1455,-152 1461,-152 1461,-152 1683,-152 1683,-152 1689,-152 1695,-158 1695,-164 1695,-164 1695,-204 1695,-204 1695,-210 1689,-216 1683,-216"/>
<text text-anchor="middle" x="1572" y="-200.4" font-family="Helvetica,sans-Serif" font-size="12.00">3. DenseDepthHead</text>
<text text-anchor="middle" x="1572" y="-187.4" font-family="Helvetica,sans-Serif" font-size="12.00">shared_geometry_feat[:, target frame]</text>
<text text-anchor="middle" x="1572" y="-174.4" font-family="Helvetica,sans-Serif" font-size="12.00">&#45;&gt; pred_dense_depth</text>
<text text-anchor="middle" x="1572" y="-161.4" font-family="Helvetica,sans-Serif" font-size="12.00">(B,1,H,W)</text>
</g>
<!-- adapter&#45;&gt;depth_head -->
<g id="edge10" class="edge">
<title>adapter&#45;&gt;depth_head</title>
<path fill="none" stroke="#f97316" stroke-width="2" d="M1153.03,-184C1240.45,-184 1354.27,-184 1441.06,-184"/>
<polygon fill="#f97316" stroke="#f97316" stroke-width="2" points="1441.08,-186.63 1448.58,-184 1441.08,-181.38 1441.08,-186.63"/>
<text text-anchor="middle" x="1296.5" y="-187.2" font-family="Helvetica,sans-Serif" font-size="11.00">shared_geometry_feat</text>
</g>
<!-- gate&#45;&gt;lss -->
<g id="edge9" class="edge">
<title>gate&#45;&gt;lss</title>
<path fill="none" stroke="#f97316" stroke-width="2" d="M1462.37,-248.34C1454.24,-243.76 1446.64,-238.36 1440,-232 1416.76,-209.71 1437.29,-187.24 1415,-164 1327.71,-72.97 1273.32,-92.81 1153,-55 1138.47,-50.43 1122.82,-46.33 1107.55,-42.74"/>
<polygon fill="#f97316" stroke="#f97316" stroke-width="2" points="1107.98,-40.15 1100.08,-41.02 1106.8,-45.26 1107.98,-40.15"/>
<text text-anchor="middle" x="1296.5" y="-167.2" font-family="Helvetica,sans-Serif" font-size="11.00">replace baseline input with feat_2d_refined</text>
</g>
<!-- dense_loss -->
<g id="node11" class="node">
<title>dense_loss</title>
<path fill="#fff7ed" stroke="#f97316" stroke-width="1.8" d="M2093,-125.5C2093,-125.5 1866,-125.5 1866,-125.5 1860,-125.5 1854,-119.5 1854,-113.5 1854,-113.5 1854,-86.5 1854,-86.5 1854,-80.5 1860,-74.5 1866,-74.5 1866,-74.5 2093,-74.5 2093,-74.5 2099,-74.5 2105,-80.5 2105,-86.5 2105,-86.5 2105,-113.5 2105,-113.5 2105,-119.5 2099,-125.5 2093,-125.5"/>
<text text-anchor="middle" x="1979.5" y="-109.9" font-family="Helvetica,sans-Serif" font-size="12.00">4. dense_depth_loss</text>
<text text-anchor="middle" x="1979.5" y="-96.9" font-family="Helvetica,sans-Serif" font-size="12.00">log&#45;depth L1 + SI term</text>
<text text-anchor="middle" x="1979.5" y="-83.9" font-family="Helvetica,sans-Serif" font-size="12.00">weighted by &#45;&#45;dense_depth_loss_weight</text>
</g>
<!-- depth_head&#45;&gt;dense_loss -->
<g id="edge11" class="edge">
<title>depth_head&#45;&gt;dense_loss</title>
<path fill="none" stroke="#f97316" stroke-width="2" d="M1695.21,-158.68C1743.35,-148.71 1798.71,-137.24 1847.65,-127.11"/>
<polygon fill="#f97316" stroke="#f97316" stroke-width="2" points="1848.32,-129.65 1855.14,-125.55 1847.26,-124.51 1848.32,-129.65"/>
<text text-anchor="middle" x="1779" y="-152.2" font-family="Helvetica,sans-Serif" font-size="11.00">pred_dense_depth</text>
</g>
<!-- dense_gt -->
<g id="node10" class="node">
<title>dense_gt</title>
<path fill="#fef3c7" stroke="#d97706" stroke-width="1.2" d="M1652,-119.5C1652,-119.5 1492,-119.5 1492,-119.5 1486,-119.5 1480,-113.5 1480,-107.5 1480,-107.5 1480,-80.5 1480,-80.5 1480,-74.5 1486,-68.5 1492,-68.5 1492,-68.5 1652,-68.5 1652,-68.5 1658,-68.5 1664,-74.5 1664,-80.5 1664,-80.5 1664,-107.5 1664,-107.5 1664,-113.5 1658,-119.5 1652,-119.5"/>
<text text-anchor="middle" x="1572" y="-103.9" font-family="Helvetica,sans-Serif" font-size="12.00">Dense depth GT</text>
<text text-anchor="middle" x="1572" y="-90.9" font-family="Helvetica,sans-Serif" font-size="12.00">views[0].dense_depth</text>
<text text-anchor="middle" x="1572" y="-77.9" font-family="Helvetica,sans-Serif" font-size="12.00">KITTI depth&#45;completion map</text>
</g>
<!-- dense_gt&#45;&gt;dense_loss -->
<g id="edge12" class="edge">
<title>dense_gt&#45;&gt;dense_loss</title>
<path fill="none" stroke="#d97706" stroke-width="1.3" d="M1664,-95.35C1717.74,-96.14 1786.72,-97.16 1846.38,-98.05"/>
<polygon fill="#d97706" stroke="#d97706" stroke-width="1.3" points="1846.44,-100.67 1853.98,-98.16 1846.52,-95.42 1846.44,-100.67"/>
<text text-anchor="middle" x="1779" y="-100.2" font-family="Helvetica,sans-Serif" font-size="11.00">target frame only</text>
</g>
<!-- dense_loss&#45;&gt;total_loss -->
<g id="edge14" class="edge">
<title>dense_loss&#45;&gt;total_loss</title>
<path fill="none" stroke="#f97316" stroke-width="2" d="M2105.16,-97.84C2150.46,-97.06 2201.88,-96.17 2248.17,-95.37"/>
<polygon fill="#f97316" stroke="#f97316" stroke-width="2" points="2248.4,-97.99 2255.85,-95.23 2248.31,-92.74 2248.4,-97.99"/>
<text text-anchor="middle" x="2180.5" y="-100.2" font-family="Helvetica,sans-Serif" font-size="11.00">added supervision</text>
</g>
<!-- note -->
<g id="node13" class="node">
<title>note</title>
<polygon fill="#f1f5f9" stroke="#94a3b8" stroke-width="1.2" points="636,-51.5 438,-51.5 438,-0.5 642,-0.5 642,-45.5 636,-51.5"/>
<polyline fill="none" stroke="#94a3b8" stroke-width="1.2" points="636,-51.5 636,-45.5 "/>
<polyline fill="none" stroke="#94a3b8" stroke-width="1.2" points="642,-45.5 636,-45.5 "/>
<text text-anchor="middle" x="540" y="-35.9" font-family="Helvetica,sans-Serif" font-size="12.00" fill="#475569">Not shown / not included here:</text>
<text text-anchor="middle" x="540" y="-22.9" font-family="Helvetica,sans-Serif" font-size="12.00" fill="#475569">LSS depth&#45;logit supervision</text>
<text text-anchor="middle" x="540" y="-9.9" font-family="Helvetica,sans-Serif" font-size="12.00" fill="#475569">(&#45;&#45;dense_lss_depth_supervision)</text>
</g>
<!-- note&#45;&gt;lss -->
<g id="edge15" class="edge">
<title>note&#45;&gt;lss</title>
<path fill="none" stroke="#94a3b8" stroke-width="1.3" stroke-dasharray="5,2" d="M642.16,-26C730.36,-26 856.56,-26 937.9,-26"/>
</g>
</g>
</svg>
